<svg width="24" height="22" viewBox="0 0 24 22" fill="none" xmlns="http://www.w3.org/2000/svg">
<path d="M7.73254 14.5159H7.73364C7.73456 14.5159 7.73547 14.5157 7.73639 14.5157H20.4844C20.7982 14.5157 21.0742 14.3076 21.1604 14.0058L23.9729 4.16205C24.0335 3.94983 23.991 3.72168 23.8583 3.54553C23.7253 3.36938 23.5175 3.26575 23.2969 3.26575H6.11096L5.60834 1.00385C5.53674 0.682129 5.25146 0.453247 4.92187 0.453247H0.703125C0.314758 0.453247 0 0.768005 0 1.15637C0 1.54474 0.314758 1.8595 0.703125 1.8595H4.35791C4.4469 2.26031 6.76318 12.6838 6.89648 13.2834C6.14923 13.6083 5.625 14.3533 5.625 15.2189C5.625 16.382 6.57129 17.3282 7.73437 17.3282H20.4844C20.8727 17.3282 21.1875 17.0135 21.1875 16.6251C21.1875 16.2368 20.8727 15.922 20.4844 15.922H7.73437C7.34674 15.922 7.03125 15.6065 7.03125 15.2189C7.03125 14.8318 7.34564 14.5168 7.73254 14.5159ZM22.3647 4.672L19.9539 13.1095H8.29834L6.42334 4.672H22.3647Z" fill="black"/>
<path d="M7.03131 19.4374C7.03131 20.6005 7.9776 21.5468 9.14069 21.5468C10.3038 21.5468 11.2501 20.6005 11.2501 19.4374C11.2501 18.2744 10.3038 17.3281 9.14069 17.3281C7.9776 17.3281 7.03131 18.2744 7.03131 19.4374ZM9.14069 18.7343C9.52832 18.7343 9.84381 19.0498 9.84381 19.4374C9.84381 19.8251 9.52832 20.1406 9.14069 20.1406C8.75305 20.1406 8.43756 19.8251 8.43756 19.4374C8.43756 19.0498 8.75305 18.7343 9.14069 18.7343Z" fill="black"/>
<path d="M16.9688 19.4374C16.9688 20.6005 17.9151 21.5468 19.0782 21.5468C20.2413 21.5468 21.1876 20.6005 21.1876 19.4374C21.1876 18.2744 20.2413 17.3281 19.0782 17.3281C17.9151 17.3281 16.9688 18.2744 16.9688 19.4374ZM19.0782 18.7343C19.4658 18.7343 19.7813 19.0498 19.7813 19.4374C19.7813 19.8251 19.4658 20.1406 19.0782 20.1406C18.6906 20.1406 18.3751 19.8251 18.3751 19.4374C18.3751 19.0498 18.6906 18.7343 19.0782 18.7343Z" fill="black"/>
</svg>
