<svg width="31" height="30" viewBox="0 0 31 30" fill="none" xmlns="http://www.w3.org/2000/svg">
<g clip-path="url(#clip0)">
<path d="M26.5369 0H4.74211C2.52172 0 0.721645 1.80989 0.721645 4.04256V25.9573C0.721645 28.19 2.52164 29.9999 4.74211 29.9999H15.4912L15.5095 19.2795H12.7396C12.3797 19.2795 12.0875 18.9869 12.0861 18.6249L12.0728 15.1693C12.0714 14.8054 12.3645 14.5096 12.7264 14.5096H15.4913V11.1706C15.4913 7.29576 17.8449 5.18587 21.2826 5.18587H24.1036C24.4645 5.18587 24.7572 5.48008 24.7572 5.84305V8.75684C24.7572 9.11967 24.4647 9.4138 24.1039 9.41402L22.3728 9.41483C20.5032 9.41483 20.1412 10.3081 20.1412 11.619V14.5097H24.2493C24.6407 14.5097 24.9444 14.8534 24.8982 15.2442L24.4909 18.6998C24.4519 19.0305 24.1731 19.2797 23.8419 19.2797H20.1595L20.1412 30H26.5371C28.7575 30 30.5575 28.1901 30.5575 25.9575V4.04256C30.5574 1.80989 28.7574 0 26.5369 0Z" fill="#475993"/>
</g>
<defs>
<clipPath id="clip0">
<rect width="29.8361" height="30" fill="white" transform="translate(0.721313)"/>
</clipPath>
</defs>
</svg>
