<svg width="30" height="30" viewBox="0 0 30 30" fill="none" xmlns="http://www.w3.org/2000/svg">
<g clip-path="url(#clip0)">
<path d="M20.9477 0H8.88833C3.98728 0 0 4.00919 0 8.93716V21.0628C0 25.9908 3.98728 30 8.88833 30H20.9477C25.8488 30 29.8361 25.9908 29.8361 21.0628V8.93716C29.836 4.00919 25.8487 0 20.9477 0ZM26.8346 21.0628C26.8346 24.3319 24.1989 26.982 20.9477 26.982H8.88833C5.63715 26.982 3.00151 24.3319 3.00151 21.0628V8.93716C3.00151 5.66807 5.63715 3.018 8.88833 3.018H20.9477C24.1989 3.018 26.8346 5.66807 26.8346 8.93716V21.0628Z" fill="url(#paint0_linear)"/>
<path d="M14.9181 7.24097C10.6631 7.24097 7.20139 10.7217 7.20139 15C7.20139 19.2783 10.6631 22.759 14.9181 22.759C19.173 22.759 22.6347 19.2783 22.6347 15C22.6347 10.7216 19.173 7.24097 14.9181 7.24097ZM14.9181 19.7411C12.3139 19.7411 10.2029 17.6185 10.2029 15C10.2029 12.3816 12.314 10.259 14.9181 10.259C17.5222 10.259 19.6332 12.3816 19.6332 15C19.6332 17.6184 17.5221 19.7411 14.9181 19.7411Z" fill="url(#paint1_linear)"/>
<path d="M22.6497 9.15841C23.6709 9.15841 24.4988 8.326 24.4988 7.29917C24.4988 6.27235 23.6709 5.43994 22.6497 5.43994C21.6285 5.43994 20.8006 6.27235 20.8006 7.29917C20.8006 8.326 21.6285 9.15841 22.6497 9.15841Z" fill="url(#paint2_linear)"/>
</g>
<defs>
<linearGradient id="paint0_linear" x1="14.918" y1="29.9127" x2="14.918" y2="0.233015" gradientUnits="userSpaceOnUse">
<stop stop-color="#E09B3D"/>
<stop offset="0.3" stop-color="#C74C4D"/>
<stop offset="0.6" stop-color="#C21975"/>
<stop offset="1" stop-color="#7024C4"/>
</linearGradient>
<linearGradient id="paint1_linear" x1="14.9181" y1="29.9127" x2="14.9181" y2="0.233052" gradientUnits="userSpaceOnUse">
<stop stop-color="#E09B3D"/>
<stop offset="0.3" stop-color="#C74C4D"/>
<stop offset="0.6" stop-color="#C21975"/>
<stop offset="1" stop-color="#7024C4"/>
</linearGradient>
<linearGradient id="paint2_linear" x1="22.6497" y1="29.9127" x2="22.6497" y2="0.233003" gradientUnits="userSpaceOnUse">
<stop stop-color="#E09B3D"/>
<stop offset="0.3" stop-color="#C74C4D"/>
<stop offset="0.6" stop-color="#C21975"/>
<stop offset="1" stop-color="#7024C4"/>
</linearGradient>
<clipPath id="clip0">
<rect width="29.8361" height="30" fill="white"/>
</clipPath>
</defs>
</svg>
