<svg width="208" height="72" viewBox="0 0 208 72" fill="none" xmlns="http://www.w3.org/2000/svg">
<path d="M26.684 33.25C29.2507 33.25 31.5507 33.8167 33.584 34.95C35.6173 36.0833 37.2007 37.6667 38.334 39.7C39.5007 41.7333 40.084 44.0833 40.084 46.75C40.084 49.4167 39.5007 51.7833 38.334 53.85C37.2007 55.8833 35.6173 57.4667 33.584 58.6C31.5507 59.7333 29.2507 60.3 26.684 60.3C24.7173 60.3 22.9173 59.9167 21.284 59.15C19.6507 58.3833 18.3007 57.2667 17.234 55.8V60H12.634V22.9H17.434V37.5C18.5007 36.1 19.834 35.05 21.434 34.35C23.034 33.6167 24.784 33.25 26.684 33.25ZM26.284 56.1C27.984 56.1 29.5007 55.7167 30.834 54.95C32.2007 54.15 33.2673 53.05 34.034 51.65C34.834 50.2167 35.234 48.5833 35.234 46.75C35.234 44.9167 34.834 43.3 34.034 41.9C33.2673 40.4667 32.2007 39.3667 30.834 38.6C29.5007 37.8333 27.984 37.45 26.284 37.45C24.6173 37.45 23.1007 37.8333 21.734 38.6C20.3673 39.3667 19.3007 40.4667 18.534 41.9C17.7673 43.3 17.384 44.9167 17.384 46.75C17.384 48.5833 17.7673 50.2167 18.534 51.65C19.3007 53.05 20.3673 54.15 21.734 54.95C23.1007 55.7167 24.6173 56.1 26.284 56.1ZM58.066 60.3C55.4327 60.3 53.066 59.7167 50.966 58.55C48.866 57.3833 47.216 55.7833 46.016 53.75C44.8493 51.6833 44.266 49.35 44.266 46.75C44.266 44.15 44.8493 41.8333 46.016 39.8C47.216 37.7333 48.866 36.1333 50.966 35C53.066 33.8333 55.4327 33.25 58.066 33.25C60.6993 33.25 63.0493 33.8333 65.116 35C67.216 36.1333 68.8494 37.7333 70.016 39.8C71.216 41.8333 71.816 44.15 71.816 46.75C71.816 49.35 71.216 51.6833 70.016 53.75C68.8494 55.7833 67.216 57.3833 65.116 58.55C63.0493 59.7167 60.6993 60.3 58.066 60.3ZM58.066 56.1C59.766 56.1 61.2827 55.7167 62.616 54.95C63.9827 54.15 65.0493 53.05 65.816 51.65C66.5827 50.2167 66.966 48.5833 66.966 46.75C66.966 44.9167 66.5827 43.3 65.816 41.9C65.0493 40.4667 63.9827 39.3667 62.616 38.6C61.2827 37.8333 59.766 37.45 58.066 37.45C56.366 37.45 54.8327 37.8333 53.466 38.6C52.1327 39.3667 51.066 40.4667 50.266 41.9C49.4993 43.3 49.116 44.9167 49.116 46.75C49.116 48.5833 49.4993 50.2167 50.266 51.65C51.066 53.05 52.1327 54.15 53.466 54.95C54.8327 55.7167 56.366 56.1 58.066 56.1ZM103.454 22.9V60H98.8543V55.8C97.7876 57.2667 96.4376 58.3833 94.8043 59.15C93.171 59.9167 91.371 60.3 89.4043 60.3C86.8376 60.3 84.5376 59.7333 82.5043 58.6C80.471 57.4667 78.871 55.8833 77.7043 53.85C76.571 51.7833 76.0043 49.4167 76.0043 46.75C76.0043 44.0833 76.571 41.7333 77.7043 39.7C78.871 37.6667 80.471 36.0833 82.5043 34.95C84.5376 33.8167 86.8376 33.25 89.4043 33.25C91.3043 33.25 93.0543 33.6167 94.6543 34.35C96.2543 35.05 97.5876 36.1 98.6543 37.5V22.9H103.454ZM89.8043 56.1C91.471 56.1 92.9876 55.7167 94.3543 54.95C95.721 54.15 96.7876 53.05 97.5543 51.65C98.321 50.2167 98.7043 48.5833 98.7043 46.75C98.7043 44.9167 98.321 43.3 97.5543 41.9C96.7876 40.4667 95.721 39.3667 94.3543 38.6C92.9876 37.8333 91.471 37.45 89.8043 37.45C88.1043 37.45 86.571 37.8333 85.2043 38.6C83.871 39.3667 82.8043 40.4667 82.0043 41.9C81.2376 43.3 80.8543 44.9167 80.8543 46.75C80.8543 48.5833 81.2376 50.2167 82.0043 51.65C82.8043 53.05 83.871 54.15 85.2043 54.95C86.571 55.7167 88.1043 56.1 89.8043 56.1ZM135.986 33.5L123.136 62.65C122.003 65.35 120.67 67.25 119.136 68.35C117.636 69.45 115.82 70 113.686 70C112.386 70 111.12 69.7833 109.886 69.35C108.686 68.95 107.686 68.35 106.886 67.55L108.936 63.95C110.303 65.25 111.886 65.9 113.686 65.9C114.853 65.9 115.82 65.5833 116.586 64.95C117.386 64.35 118.103 63.3 118.736 61.8L119.586 59.95L107.886 33.5H112.886L122.136 54.7L131.286 33.5H135.986Z" fill="black"/>
<line x1="0.5" y1="15" x2="0.5" y2="72" stroke="black"/>
<line x1="144.5" y1="15" x2="144.5" y2="72" stroke="black"/>
<path d="M162.585 30.8H158.945V34.38H157.265V30.8H153.625V29.22H157.265V25.62H158.945V29.22H162.585V30.8ZM170.561 37.12C169.481 37.12 168.514 36.8867 167.661 36.42C166.821 35.9533 166.161 35.3133 165.681 34.5C165.201 33.6733 164.961 32.74 164.961 31.7C164.961 30.66 165.201 29.7333 165.681 28.92C166.161 28.0933 166.821 27.4533 167.661 27C168.514 26.5333 169.481 26.3 170.561 26.3C171.521 26.3 172.374 26.4933 173.121 26.88C173.881 27.2667 174.468 27.8267 174.881 28.56L173.421 29.5C173.088 28.9933 172.674 28.6133 172.181 28.36C171.688 28.1067 171.141 27.98 170.541 27.98C169.848 27.98 169.221 28.1333 168.661 28.44C168.114 28.7467 167.681 29.1867 167.361 29.76C167.054 30.32 166.901 30.9667 166.901 31.7C166.901 32.4467 167.054 33.1067 167.361 33.68C167.681 34.24 168.114 34.6733 168.661 34.98C169.221 35.2867 169.848 35.44 170.541 35.44C171.141 35.44 171.688 35.3133 172.181 35.06C172.674 34.8067 173.088 34.4267 173.421 33.92L174.881 34.84C174.468 35.5733 173.881 36.14 173.121 36.54C172.374 36.9267 171.521 37.12 170.561 37.12ZM181.227 26.3C182.694 26.3 183.814 26.66 184.587 27.38C185.374 28.1 185.767 29.1733 185.767 30.6V37H183.947V35.6C183.627 36.0933 183.167 36.4733 182.567 36.74C181.98 36.9933 181.28 37.12 180.467 37.12C179.28 37.12 178.327 36.8333 177.607 36.26C176.9 35.6867 176.547 34.9333 176.547 34C176.547 33.0667 176.887 32.32 177.567 31.76C178.247 31.1867 179.327 30.9 180.807 30.9H183.847V30.52C183.847 29.6933 183.607 29.06 183.127 28.62C182.647 28.18 181.94 27.96 181.007 27.96C180.38 27.96 179.767 28.0667 179.167 28.28C178.567 28.48 178.06 28.7533 177.647 29.1L176.847 27.66C177.394 27.22 178.047 26.8867 178.807 26.66C179.567 26.42 180.374 26.3 181.227 26.3ZM180.787 35.64C181.52 35.64 182.154 35.48 182.687 35.16C183.22 34.8267 183.607 34.36 183.847 33.76V32.28H180.887C179.26 32.28 178.447 32.8267 178.447 33.92C178.447 34.4533 178.654 34.8733 179.067 35.18C179.48 35.4867 180.054 35.64 180.787 35.64ZM191.16 28.18C191.493 27.5667 191.987 27.1 192.64 26.78C193.293 26.46 194.087 26.3 195.02 26.3V28.16C194.913 28.1467 194.767 28.14 194.58 28.14C193.54 28.14 192.72 28.4533 192.12 29.08C191.533 29.6933 191.24 30.5733 191.24 31.72V37H189.32V26.4H191.16V28.18ZM206.869 31.76C206.869 31.9067 206.855 32.1 206.829 32.34H198.229C198.349 33.2733 198.755 34.0267 199.449 34.6C200.155 35.16 201.029 35.44 202.069 35.44C203.335 35.44 204.355 35.0133 205.129 34.16L206.189 35.4C205.709 35.96 205.109 36.3867 204.389 36.68C203.682 36.9733 202.889 37.12 202.009 37.12C200.889 37.12 199.895 36.8933 199.029 36.44C198.162 35.9733 197.489 35.3267 197.009 34.5C196.542 33.6733 196.309 32.74 196.309 31.7C196.309 30.6733 196.535 29.7467 196.989 28.92C197.455 28.0933 198.089 27.4533 198.889 27C199.702 26.5333 200.615 26.3 201.629 26.3C202.642 26.3 203.542 26.5333 204.329 27C205.129 27.4533 205.749 28.0933 206.189 28.92C206.642 29.7467 206.869 30.6933 206.869 31.76ZM201.629 27.92C200.709 27.92 199.935 28.2 199.309 28.76C198.695 29.32 198.335 30.0533 198.229 30.96H205.029C204.922 30.0667 204.555 29.34 203.929 28.78C203.315 28.2067 202.549 27.92 201.629 27.92Z" fill="black"/>
</svg>
