<svg width="16" height="14" viewBox="0 0 16 14" fill="none" xmlns="http://www.w3.org/2000/svg">
<path d="M15.0228 13.0041L10.8994 9.02285C11.6981 8.07029 12.179 6.85987 12.179 5.54156C12.179 2.48609 9.60404 -6.10352e-05 6.43945 -6.10352e-05C3.27486 -6.10352e-05 0.699951 2.48606 0.699951 5.54153C0.699951 8.597 3.27489 11.0832 6.43948 11.0832C7.80487 11.0832 9.05851 10.6188 10.0451 9.84767L14.1685 13.8289C14.2863 13.9426 14.441 13.9998 14.5956 13.9998C14.7503 13.9998 14.905 13.9426 15.0228 13.8289C15.259 13.6008 15.259 13.2321 15.0228 13.0041ZM6.43948 9.91649C3.94067 9.91649 1.90828 7.95419 1.90828 5.54153C1.90828 3.12888 3.94067 1.16658 6.43948 1.16658C8.9383 1.16658 10.9707 3.12888 10.9707 5.54153C10.9707 7.95419 8.93827 9.91649 6.43948 9.91649Z" fill="black"/>
</svg>
