<svg width="31" height="30" viewBox="0 0 31 30" fill="none" xmlns="http://www.w3.org/2000/svg">
<g clip-path="url(#clip0)">
<path d="M15.3614 30.0014C23.6003 30.0014 30.2792 23.2858 30.2792 15.0017C30.2792 6.71756 23.6003 0.00195312 15.3614 0.00195312C7.12254 0.00195312 0.443626 6.71756 0.443626 15.0017C0.443626 23.2858 7.12254 30.0014 15.3614 30.0014Z" fill="#CB2027"/>
<path d="M16.5648 20.0864C15.437 19.9987 14.9631 19.4364 14.0787 18.8966C13.5926 21.4611 12.9985 23.9194 11.2389 25.2036C10.6951 21.3276 12.0361 18.4163 12.6589 15.3262C11.5973 13.5294 12.7865 9.91271 15.0256 10.8039C17.7814 11.8996 12.6398 17.485 16.0914 18.1826C19.695 18.911 21.1661 11.8956 18.9312 9.61378C15.7024 6.31933 9.53271 9.53891 10.2914 14.255C10.4762 15.408 11.6612 15.758 10.7647 17.3489C8.69824 16.8888 8.08183 15.25 8.16108 13.0652C8.28898 9.48891 11.3569 6.98485 14.4342 6.63832C18.326 6.20035 21.9787 8.07525 22.4829 11.7561C23.0501 15.9104 20.7259 20.4094 16.5648 20.0864Z" fill="#F1F2F2"/>
</g>
<defs>
<clipPath id="clip0">
<rect width="29.8361" height="30" fill="white" transform="translate(0.442627)"/>
</clipPath>
</defs>
</svg>
