<svg width="30" height="30" viewBox="0 0 30 30" fill="none" xmlns="http://www.w3.org/2000/svg">
<g clip-path="url(#clip0)">
<path d="M30 5.69813C28.8905 6.1875 27.7082 6.51187 26.4756 6.66937C27.7436 5.90812 28.7114 4.71187 29.1664 3.27C27.9842 3.97875 26.6789 4.47938 25.2878 4.75875C24.1652 3.55688 22.5652 2.8125 20.8198 2.8125C17.4334 2.8125 14.7071 5.57625 14.7071 8.96438C14.7071 9.45188 14.7482 9.92062 14.8489 10.3669C9.76368 10.1175 5.26403 7.66688 2.24126 3.93375C1.71354 4.85438 1.40399 5.90812 1.40399 7.0425C1.40399 9.1725 2.49487 11.0606 4.12093 12.1537C3.13821 12.135 2.17413 11.8481 1.35737 11.3962C1.35737 11.415 1.35737 11.4394 1.35737 11.4637C1.35737 14.4525 3.47759 16.935 6.25794 17.5069C5.76005 17.6438 5.21741 17.7094 4.65425 17.7094C4.26265 17.7094 3.86733 17.6869 3.49624 17.6044C4.28876 20.04 6.53766 21.8306 9.21171 21.8888C7.13065 23.5256 4.48829 24.5119 1.62776 24.5119C1.12614 24.5119 0.645032 24.4894 0.163925 24.4275C2.87341 26.1844 6.08452 27.1875 9.54737 27.1875C20.803 27.1875 26.9567 17.8125 26.9567 9.68625C26.9567 9.41437 26.9474 9.15188 26.9343 8.89125C28.1483 8.025 29.1683 6.94313 30 5.69813Z" fill="#03A9F4"/>
</g>
<defs>
<clipPath id="clip0">
<rect width="29.8361" height="30" fill="white" transform="translate(0.163925)"/>
</clipPath>
</defs>
</svg>
